<svg fill="#EE3C00" height="512" viewBox="0 0 64 64" width="512" xmlns="http://www.w3.org/2000/svg"><g id="Cloud_database" data-name="Cloud database"><path d="m24 50h16v4h-16z"/><path d="m32 42a8.972 8.972 0 0 0 5.2-1.659l-2.08-3.867a1 1 0 0 1 1.354-1.354l3.548 1.91a8.9 8.9 0 0 0 .978-4.03 9 9 0 1 0 -9 9zm0-12a3 3 0 1 1 -3 3 3 3 0 0 1 3-3z"/><circle cx="32" cy="33" r="1"/><path d="m40.409 42.079a1.23 1.23 0 0 0 1.953.287 1.23 1.23 0 0 0 -.287-1.953l-3.618-1.948z"/><path d="m50.91 39.954a9.993 9.993 0 0 0 2.69-19.279 1 1 0 0 1 -.637-1.058 5.21 5.21 0 0 0 .037-.617 5.006 5.006 0 0 0 -5-5 4.8 4.8 0 0 0 -2.022.429 1 1 0 0 1 -1.387-.661 13 13 0 0 0 -25.182 0 1 1 0 0 1 -1.387.661 4.8 4.8 0 0 0 -2.022-.429 5.006 5.006 0 0 0 -5 5 5.21 5.21 0 0 0 .042.617 1 1 0 0 1 -.637 1.058 10 10 0 0 0 3.595 19.325h1v-17a5.006 5.006 0 0 1 5-5h24a5.006 5.006 0 0 1 5 5v17s1.61-.019 1.91-.046z"/><path d="m47 23a3 3 0 0 0 -3-3h-24a3 3 0 0 0 -3 3v34a3 3 0 0 0 3 3h24a3 3 0 0 0 3-3zm-28-1h2v2h-2zm2 36h-2v-2h2zm11-36a11.013 11.013 0 0 1 11 11 10.9 10.9 0 0 1 -1.221 4.976l1.248.672a3.23 3.23 0 0 1 .753 5.128 3.193 3.193 0 0 1 -2.273.947 3.25 3.25 0 0 1 -.48-.035 3.2 3.2 0 0 1 -2.375-1.665l-.5-.921a11 11 0 1 1 -6.152-20.102zm10 33a1 1 0 0 1 -1 1h-18a1 1 0 0 1 -1-1v-6a1 1 0 0 1 1-1h18a1 1 0 0 1 1 1zm3 3h-2v-2h2zm0-34h-2v-2h2z"/></g></svg>
