<?xml version="1.0" encoding="iso-8859-1"?>
<!-- Generator: Adobe Illustrator 19.0.0, SVG Export Plug-In . SVG Version: 6.00 Build 0)  -->
<svg version="1.1" id="Capa_1" xmlns="http://www.w3.org/2000/svg" xmlns:xlink="http://www.w3.org/1999/xlink" x="0px" y="0px"
	 viewBox="0 0 490 490" fill="#fff" height="32px" width="32px" style="enable-background:new 0 0 490 490;" xml:space="preserve">
	<path d="M383.945,490L230.694,364.254H50.716c-27.924,0-50.63-23.11-50.63-51.527V51.535C0.086,23.118,22.792,0,50.716,0h388.568
		c27.924,0,50.63,23.118,50.63,51.535v261.193c0,28.417-22.707,51.527-50.63,51.527h-55.339V490z M50.716,30.614
		c-11.032,0-20.016,9.388-20.016,20.92v261.193c0,11.525,8.984,20.913,20.016,20.913h190.921l111.694,91.633V333.64h85.953
		c11.032,0,20.016-9.388,20.016-20.913V51.535c0-11.533-8.984-20.92-20.016-20.92H50.716z"/>
</svg>
