<svg fill="#EE3C00" height="512" viewBox="0 0 64 64" width="512" xmlns="http://www.w3.org/2000/svg"><g id="Authorization_manager" data-name="Authorization manager"><path d="m28.953 54.633-1.453-13.076-1.183.392a1 1 0 0 1 -.63 0l-1.187-.392-1.453 13.076 2.953 2.953z"/><path d="m24.879 38.177-.15 1.347 1.271.422 1.271-.422-.15-1.347-1.121-.897z"/><path d="m33.381 34.626-2.222-.555-3.411 2.047 3.025 2.42z"/><path d="m32.018 16.124-2.018-2.524-.817 1.021a8.955 8.955 0 0 1 -7.028 3.379h-5.155v3a9 9 0 0 0 18 0v-3.092a4.972 4.972 0 0 1 -2.982-1.784z"/><path d="m15 16h7.155a6.966 6.966 0 0 0 5.466-2.627l1.6-2a1 1 0 0 1 1.562 0l2.8 3.5a2.99 2.99 0 0 0 2.34 1.127h1.077v-3a9.011 9.011 0 0 0 -9-9h-4a9.011 9.011 0 0 0 -9 9z"/><path d="m41 40v-2.733a14.79 14.79 0 0 0 -3.3-1.567l-4.5 24.3h4.982a2.966 2.966 0 0 1 -.182-1v-16a3 3 0 0 1 3-3z"/><path d="m30 31.236a10.853 10.853 0 0 1 -8 0v1.2l4 2.4 4-2.4z"/><path d="m18.619 34.626 2.608 3.912 3.025-2.42-3.411-2.047z"/><path d="m35.763 35.187-.308-.066-3.623 5.434a1 1 0 0 1 -.679.433.976.976 0 0 1 -.153.012 1 1 0 0 1 -.625-.219l-1.045-.837 1.664 14.945a1 1 0 0 1 -.287.818l-4 4a1 1 0 0 1 -.707.293h5.168z"/><circle cx="50" cy="49" r="1"/><path d="m43 40h1v-7a6 6 0 0 1 12 0v7h1v-7a7 7 0 0 0 -14 0z"/><path d="m60 59v-16a1 1 0 0 0 -1-1h-18a1 1 0 0 0 -1 1v16a1 1 0 0 0 1 1h18a1 1 0 0 0 1-1zm-9-7.184v5.184a1 1 0 0 1 -2 0v-5.184a3 3 0 1 1 2 0z"/><path d="m4 60h8v-11a1 1 0 0 1 2 0v11h4.8l-4.5-24.3a15.081 15.081 0 0 0 -10.3 14.235z"/><path d="m26 60a1 1 0 0 1 -.707-.293l-4-4a1 1 0 0 1 -.287-.818l1.664-14.945-1.045.837a1 1 0 0 1 -.625.219.976.976 0 0 1 -.153-.012 1 1 0 0 1 -.679-.433l-3.623-5.435-.308.066 4.595 24.814z"/></g></svg>
